#!OML:ASF E:\Steps\Project 1\Capture day 1\Session 2\Subject.ASF
:FULLY-SPECIFIED
:DEGREES
142
root 8.79858 16.3152 30.7602 -150.692 -0.762224 178.935
lowerback -29.2708 -1.44357 -6.21908
upperback -2.37885 -0.656902 -0.558438
thorax 12.7867 -0.977258 2.44578
lowerneck -7.92142 -1.44647 -0.445924
upperneck 0.192513 -2.21451 5.23649
head 1.48542 -1.0728 1.64842
rclavicle -3.37934e-015 2.50469e-014
rhumerus -36.6807 -19.4051 -80.3957
rradius 30.8935
rwrist -0.77928
rhand -6.05738 -47.7313
rfingers 7.12502
rthumb 19.7772 -76.7452
lclavicle -3.37934e-015 2.50469e-014
lhumerus -29.7622 8.00759 80.1485
lradius 21.1842
lwrist -5.8605
lhand -20.5486 -13.8365
lfingers 7.12502
lthumb 5.81017 16.0638
rfemur -24.5045 6.34403 17.4492
rtibia 5.318
rfoot -18.8449 -8.50704
rtoes -30.6729
lfemur -25.6448 -10.2807 -17.9954
ltibia 7.61996
lfoot -8.92583 2.97875
ltoes -34.0452
143
root 8.80011 16.3155 30.7596 -150.638 -0.707222 178.881
lowerback -29.2896 -1.45868 -6.35493
upperback -2.40616 -0.642492 -0.52558
thorax 12.7622 -0.979844 2.5592
lowerneck -7.95973 -1.41809 -0.528964
upperneck 0.247315 -2.1677 5.22311
head 1.50966 -1.04692 1.66069
rclavicle -5.56597e-015 1.39149e-014
rhumerus -36.6996 -19.4431 -80.2723
rradius 30.8683
rwrist -0.763983
rhand -6.00126 -47.6064
rfingers 7.12502
rthumb 19.8311 -76.6147
lclavicle -5.56597e-015 1.39149e-014
lhumerus -29.8395 7.98566 80.2631
lradius 21.2511
lwrist -5.82794
lhand -20.9457 -13.879
lfingers 7.12502
lthumb 5.42674 16.0315
rfemur -24.6213 6.2208 17.3995
rtibia 5.4403
rfoot -18.9293 -8.32687
rtoes -30.1984
lfemur -25.686 -10.2342 -18.0765
ltibia 7.60256
lfoot -8.94895 2.94855
ltoes -33.8192
144
root 8.79992 16.315 30.7573 -150.617 -0.659106 178.81
lowerback -29.2927 -1.47959 -6.46713
upperback -2.43489 -0.642099 -0.514238
thorax 12.7299 -0.986958 2.63161
lowerneck -7.89474 -1.39384 -0.596228
upperneck 0.199913 -2.12643 5.24328
head 1.48304 -1.02757 1.68065
rclavicle -1.2921e-015 -1.59028e-015
rhumerus -36.7495 -19.4769 -80.1678
rradius 30.8287
rwrist -0.763606
rhand -5.93566 -47.4307
rfingers 7.12502
rthumb 19.8942 -76.4324
lclavicle -1.2921e-015 -1.59028e-015
lhumerus -29.9335 7.96372 80.3043
lradius 21.2775
lwrist -5.76414
lhand -21.3254 -14.0226
lfingers 7.12502
lthumb 5.06015 15.897
rfemur -24.6435 6.0778 17.321
rtibia 5.39785
rfoot -18.9073 -8.11912
rtoes -29.8377
lfemur -25.684 -10.1806 -18.2078
ltibia 7.59636
lfoot -8.92215 2.93889
ltoes -33.8054
145
root 8.80037 16.3134 30.7565 -150.634 -0.640576 178.828
lowerback -29.2754 -1.46 -6.45147
upperback -2.4365 -0.62165 -0.521157
thorax 12.7186 -0.976216 2.62384
lowerneck -7.85767 -1.40413 -0.623836
upperneck 0.151619 -2.14015 5.31555
head 1.46319 -1.03556 1.70833
rclavicle 2.08724e-015 1.31198e-014
rhumerus -36.7944 -19.4839 -80.1642
rradius 30.8304
rwrist -0.776529
rhand -5.92821 -47.3734
rfingers 7.12502
rthumb 19.9014 -76.3744
lclavicle 2.08724e-015 1.31198e-014
lhumerus -29.9332 7.91391 80.312
lradius 21.2613
lwrist -5.69893
lhand -21.4004 -13.8633
lfingers 7.12502
lthumb 4.98774 16.058
rfemur -24.6451 5.952 17.3602
rtibia 5.39282
rfoot -18.9086 -7.93208
rtoes -29.9254
lfemur -25.6652 -10.0694 -18.216
ltibia 7.61082
lfoot -8.89951 2.84956
ltoes -33.5621
146
root 8.80226 16.3117 30.7571 -150.607 -0.619624 178.896
lowerback -29.3066 -1.43804 -6.40904
upperback -2.4212 -0.603687 -0.503422
thorax 12.7491 -0.966324 2.62642
lowerneck -7.8915 -1.38741 -0.646074
upperneck 0.123983 -2.11832 5.34727
head 1.46052 -1.02514 1.72321
rclavicle 1.49089e-015 1.98785e-014
rhumerus -36.7824 -19.4397 -80.1946
rradius 30.8585
rwrist -0.772727
rhand -5.94028 -47.3818
rfingers 7.12502
rthumb 19.8898 -76.384
lclavicle 1.49089e-015 1.98785e-014
lhumerus -29.872 7.92852 80.3413
lradius 21.2324
lwrist -5.70422
lhand -21.4153 -13.6967
lfingers 7.12502
lthumb 4.97335 16.2249
rfemur -24.7194 5.9649 17.4392
rtibia 5.46045
rfoot -18.9553 -7.88848
rtoes -30.0896
lfemur -25.6977 -9.94297 -18.1412
ltibia 7.61836
lfoot -8.93908 2.74926
ltoes -33.2456
147
root 8.80305 16.3108 30.7583 -150.567 -0.634733 178.941
lowerback -29.3392 -1.43739 -6.34999
upperback -2.38583 -0.6133 -0.496167
thorax 12.8057 -0.967519 2.59843
lowerneck -7.92966 -1.36926 -0.642299
upperneck 0.0178135 -2.09523 5.34687
head 1.43209 -1.01712 1.7228
rclavicle -1.78906e-015 -5.1684e-015
rhumerus -36.6899 -19.4398 -80.2422
rradius 30.8654
rwrist -0.778101
rhand -5.92129 -47.3114
rfingers 7.12502
rthumb 19.908 -76.3117
lclavicle -1.78906e-015 -5.1684e-015
lhumerus -29.7934 7.99835 80.3266
lradius 21.2163
lwrist -5.79447
lhand -21.4941 -13.8208
lfingers 7.12502
lthumb 4.89727 16.1027
rfemur -24.825 5.98554 17.4945
rtibia 5.57911
rfoot -19.0089 -7.93283
rtoes -30.0006
lfemur -25.7596 -10.0436 -18.0379
ltibia 7.63715
lfoot -8.99959 2.83214
ltoes -32.8804
148
root 8.80338 16.3117 30.7596 -150.575 -0.666258 178.977
lowerback -29.3061 -1.41678 -6.24901
upperback -2.39516 -0.617701 -0.535239
thorax 12.7806 -0.962894 2.50085
lowerneck -7.88369 -1.36811 -0.611032
upperneck 0.011297 -2.09816 5.38292
head 1.42217 -1.01909 1.72889
rclavicle 9.64106e-015 9.14409e-015
rhumerus -36.7285 -19.5351 -80.2757
rradius 30.8646
rwrist -0.725028
rhand -5.90234 -47.1913
rfingers 7.12502
rthumb 19.9262 -76.1897
lclavicle 9.64106e-015 9.14409e-015
lhumerus -29.8254 8.02613 80.2268
lradius 21.1896
lwrist -5.96594
lhand -21.6347 -13.9598
lfingers 7.12502
lthumb 4.76155 15.9667
rfemur -24.8568 5.90656 17.5626
rtibia 5.65157
rfoot -19.047 -7.86588
rtoes -29.7717
lfemur -25.785 -10.2582 -17.9192
ltibia 7.67137
lfoot -9.03861 3.00697
ltoes -32.5947
149
root 8.80401 16.3118 30.7586 -150.58 -0.647375 179.003
lowerback -29.289 -1.38381 -6.20658
upperback -2.39573 -0.586019 -0.56176
thorax 12.7695 -0.945382 2.46172
lowerneck -7.87039 -1.37591 -0.60897
upperneck 0.0134964 -2.11222 5.44239
head 1.42213 -1.02582 1.74734
rclavicle 2.68359e-015 3.18055e-014
rhumerus -36.7472 -19.6334 -80.2762
rradius 30.8599
rwrist -0.665111
rhand -5.88509 -47.1053
rfingers 7.12502
rthumb 19.9428 -76.102
lclavicle 2.68359e-015 3.18055e-014
lhumerus -29.8472 8.01152 80.2032
lradius 21.1875
lwrist -6.04686
lhand -21.7136 -13.883
lfingers 7.12502
lthumb 4.68535 16.0452
rfemur -24.8505 5.86014 17.611
rtibia 5.6499
rfoot -19.1153 -7.76723
rtoes -29.8173
lfemur -25.8246 -10.1444 -17.9118
ltibia 7.77574
lfoot -9.07209 2.88321
ltoes -32.4966
150
root 8.80482 16.3116 30.758 -150.549 -0.640362 179.018
lowerback -29.2874 -1.38022 -6.24388
upperback -2.40871 -0.5759 -0.52449
thorax 12.7534 -0.943318 2.52589
lowerneck -7.91396 -1.34893 -0.660192
upperneck 0.0510636 -2.0732 5.46085
head 1.44191 -1.00437 1.76398
rclavicle -2.78299e-015 9.93923e-015
rhumerus -36.7622 -19.5463 -80.244
rradius 30.8868
rwrist -0.734783
rhand -5.88874 -47.1208
rfingers 7.12502
rthumb 19.9393 -76.1178
lclavicle -2.78299e-015 9.93923e-015
lhumerus -29.895 8.15434 80.2344
lradius 21.1956
lwrist -6.15457
lhand -21.5919 -13.7648
lfingers 7.12502
lthumb 4.80287 16.1608
rfemur -24.9116 5.74101 17.6655
rtibia 5.69437
rfoot -19.1747 -7.65438
rtoes -29.9749
lfemur -25.9932 -9.61856 -18.0151
ltibia 8.04503
lfoot -9.15975 2.30503
ltoes -32.0635
151
root 8.80611 16.312 30.7579 -150.552 -0.66193 179.028
lowerback -29.2311 -1.38882 -6.27492
upperback -2.41017 -0.582469 -0.488334
thorax 12.7277 -0.946495 2.58049
lowerneck -8.00774 -1.33185 -0.709059
upperneck 0.1117 -2.04844 5.46436
head 1.47817 -0.989165 1.77488
rclavicle -6.26172e-015 2.98177e-014
rhumerus -36.7687 -19.4409 -80.2134
rradius 30.9016
rwrist -0.823146
rhand -5.88593 -47.1198
rfingers 7.12502
rthumb 19.942 -76.1166
lclavicle -6.26172e-015 2.98177e-014
lhumerus -29.8774 8.28097 80.2541
lradius 21.15
lwrist -6.25599
lhand -21.3775 -13.7052
lfingers 7.12502
lthumb 5.00985 16.2156
rfemur -24.9032 5.84562 17.6592
rtibia 5.68778
rfoot -19.1091 -7.80134
rtoes -30.1285
lfemur -26.0329 -9.45177 -18.0269
ltibia 8.11145
lfoot -9.1775 2.09639
ltoes -31.9291
152
root 8.80664 16.3127 30.7572 -150.583 -0.679918 179.018
lowerback -29.1687 -1.38074 -6.25106
upperback -2.39485 -0.575243 -0.511983
thorax 12.7166 -0.939324 2.54635
lowerneck -7.9838 -1.32978 -0.721066
upperneck 0.0695322 -2.04552 5.49977
head 1.46107 -0.98896 1.78849
rclavicle 7.85199e-015 -3.18055e-015
rhumerus -36.7924 -19.4408 -80.2212
rradius 30.9274
rwrist -0.874209
rhand -5.87447 -47.0637
rfingers 7.12502
rthumb 19.953 -76.0593
lclavicle 7.85199e-015 -3.18055e-015
lhumerus -29.8657 8.19325 80.2399
lradius 21.1471
lwrist -6.2496
lhand -21.3054 -13.7164
lfingers 7.12502
lthumb 5.0795 16.2028
rfemur -24.8583 6.00285 17.6175
rtibia 5.70376
rfoot -19.0794 -8.00698
rtoes -30.2609
lfemur -25.9179 -9.83375 -17.9359
ltibia 7.95448
lfoot -9.14464 2.46115
ltoes -31.5248
